<?xml version="1.0" encoding="utf-8"?>
<!-- Generator: Adobe Illustrator 25.2.0, SVG Export Plug-In . SVG Version: 6.00 Build 0)  -->
<svg version="1.1" id="Layer_1" xmlns="http://www.w3.org/2000/svg" xmlns:xlink="http://www.w3.org/1999/xlink" x="0px" y="0px"
	 viewBox="0 0 105.2 36" style="enable-background:new 0 0 105.2 36;" xml:space="preserve">
<style type="text/css">
	.st0{fill:#CED3DD;}
	.st1{fill:none;stroke:#CED3DD;stroke-miterlimit:10;}
	.st2{enable-background:new    ;}
</style>
<g id="Layer_2_1_">
	<g id="Layer_1-2">
		<path class="st0" d="M99.4,4.8c1.7,2.4,2.3,5.3,1.7,8.2L97,32.7H10.9c-1.6,0-3.1-0.3-4.6-1c1.9,2.7,5.1,4.3,8.4,4.3h86.1l4.2-19.7
			C106,11.6,103.7,6.9,99.4,4.8z"/>
		<path class="st1" d="M99.4,4.8c-1.9-2.7-5.1-4.3-8.4-4.3H4.9L0.7,20.2c-1.2,5.6,2.4,11.1,7.9,12.3c0.7,0.2,1.5,0.2,2.2,0.2H97
			l4.2-19.7C101.8,10.2,101.2,7.2,99.4,4.8z"/>
		<g class="st2">
			<path class="st0" d="M12.4,8h11.1c3.7,0,3.7,0,4.3,0.1c2.5,0.2,2.9,1.1,1.8,3.9c-0.9,2.2-1.8,3.1-3.5,3.5
				c1.9,0.3,2.2,1.2,1.2,3.7c-0.9,2.2-1.9,3.3-3.5,3.8c-1,0.3-1.3,0.3-6.5,0.3H6.3L12.4,8z M18.9,19.7c2.8,0,2.8,0,3.2-0.2
				c0.5-0.2,0.8-0.5,1-1.2c0.3-0.7,0.2-1-0.3-1.1c-0.2,0-0.2,0-2.9-0.1h-6.7l-1,2.6H18.9z M21.1,14c1.7,0,2.4,0,2.7-0.2
				c0.4-0.1,0.7-0.5,0.9-1.1c0.3-0.6,0.2-1-0.3-1.1c-0.2,0-0.3,0-2.4-0.1h-6.6l-1,2.4H21.1z"/>
		</g>
		<g class="st2">
			<path class="st0" d="M44,20.7H33.7l-2.4,2.6H26L40.3,8h7.3l2,15.3h-5.4L44,20.7z M43,11.6h-0.9l-5.3,5.8h6.9L43,11.6z"/>
			<path class="st0" d="M56.4,18.2c-0.4,0.9-0.4,1.2-0.1,1.4c0.3,0.3,0.8,0.3,4.1,0.3c5.1,0,5.1,0,5.6-1.4c0.4-0.9,0.1-1.1-1.4-1.2
				L61,17.4l-2.5-0.1l-1.2,0c-3.8-0.1-4.5-1.1-3.1-4.5C55.3,9.8,56.7,8.5,59,8c1-0.2,3.2-0.3,6.9-0.3c4.5,0,6.1,0.2,6.9,0.9
				c0.7,0.6,0.7,1.6-0.1,3.4c0,0.1-0.2,0.4-0.3,0.7h-4.6c0.3-0.9,0.3-1.1,0-1.3c-0.3-0.2-0.9-0.3-4.2-0.3c-4,0-4.4,0.1-4.8,1.2
				c-0.2,0.6-0.1,0.9,0.3,1c0.4,0.1,1.6,0.2,4.9,0.3c5,0.2,6,0.3,6.8,0.9c0.8,0.7,0.8,1.7-0.1,3.9c-1.1,2.7-2.2,4-4.1,4.6
				c-1.1,0.3-3.1,0.5-7.7,0.5c-4.8,0-6.6-0.2-7.4-0.9c-0.8-0.7-0.8-1.6,0-3.7l0.3-0.7H56.4z"/>
			<path class="st0" d="M93.7,8l-1.4,3.6H79.7l-0.9,2.2h11.9l-1.3,3.4H77.5l-1,2.4h12.6l-1.5,3.7H70.4L76.5,8H93.7z"/>
		</g>
	</g>
</g>
</svg>
