<svg xmlns="http://www.w3.org/2000/svg" viewBox="0 0 105.25 35.98"><defs><style>.cls-1,.cls-3{fill:#ced3dd;}.cls-2{fill:none;stroke:#ced3dd;stroke-miterlimit:10;}.cls-3{font-size:24.73px;font-family:MicrogrammaD-BoldExte, Microgramma D Extended;font-weight:700;}.cls-4{letter-spacing:0em;}</style></defs><g id="Layer_2" data-name="Layer 2"><g id="Layer_1-2" data-name="Layer 1"><path class="cls-1" d="M99.44,4.82A10.27,10.27,0,0,1,101.17,13L97,32.7H10.87a10.32,10.32,0,0,1-4.56-1A10.32,10.32,0,0,0,14.71,36h86.14L105,16.28A10.38,10.38,0,0,0,99.44,4.82Z"/><path class="cls-2" d="M99.44,4.82A10.31,10.31,0,0,0,91,.5H4.89L.73,20.2A10.33,10.33,0,0,0,10.87,32.7H97L101.17,13A10.27,10.27,0,0,0,99.44,4.82Z"/><text class="cls-3" transform="matrix(0.94, 0, -0.37, 0.93, 5.18, 23.33)"><tspan class="cls-4">B</tspan><tspan x="22.55" y="0">ASE</tspan></text></g></g></svg>