<?xml version="1.0" encoding="utf-8"?>
<!-- Generator: Adobe Illustrator 25.2.0, SVG Export Plug-In . SVG Version: 6.00 Build 0)  -->
<svg version="1.1" id="Layer_1" xmlns="http://www.w3.org/2000/svg" xmlns:xlink="http://www.w3.org/1999/xlink" x="0px" y="0px"
	 viewBox="0 0 104.4 99.4" style="enable-background:new 0 0 104.4 99.4;" xml:space="preserve">
<style type="text/css">
	.st0{fill:#CED3DD;}
	.st1{fill:none;stroke:#CED3DD;stroke-miterlimit:10;}
	.st2{enable-background:new    ;}
</style>
<g id="Layer_2_1_">
	<g id="Layer_1-2">
		<path class="st0" d="M75,13l-4.2,19.7h3.5L78,15.3c1-4.6-1.3-9.3-5.5-11.4C74.8,6.3,75.7,9.7,75,13z"/>
		<path class="st0" d="M10.9,64.9c-1.6,0-3.2-0.4-4.6-1.1c2,2.1,4.7,3.3,7.6,3.3h16.7l0.5-2.3H10.9z"/>
		<path class="st0" d="M98.6,36c2.3,2.5,3.2,5.9,2.5,9.2L97,64.9H64l-6.8,32.2H37c-1.6,0-3.2-0.4-4.6-1.1c1.9,2.1,4.7,3.4,7.6,3.4
			h20.2L67,67.2h33l4.2-19.7C105.2,42.9,102.9,38.2,98.6,36z"/>
		<path class="st1" d="M98.6,36c-2-2.1-4.7-3.4-7.6-3.3H70.8L75,13c1.2-5.6-2.4-11.1-8-12.3c-0.7-0.1-1.4-0.2-2.1-0.2H44.7
			l-6.8,32.2h-33L0.7,52.4C-0.5,58,3.1,63.5,8.7,64.7c0.7,0.2,1.5,0.2,2.2,0.2h20.2l-0.5,2.3l-3.7,17.4c-1,4.6,1.3,9.3,5.5,11.4
			c1.4,0.7,3,1.1,4.6,1.1h20.2L64,64.9h33l4.2-19.7C101.9,41.9,100.9,38.5,98.6,36z"/>
		<g class="st2">
			<path class="st0" d="M13.2,40.2h10.6c2.9,0,3.3,0,4.2,0.1c2.8,0.4,3.1,1.7,1.5,5.6c-1.4,3.4-2.5,4.7-4.6,5.4
				c-1.2,0.3-2.3,0.4-5.6,0.4h-5.9l-1.5,3.7H7.1L13.2,40.2z M20.7,48c2.2,0,2.3,0,2.8-0.3c0.6-0.3,0.9-0.7,1.3-1.7
				c0.4-1.1,0.4-1.6-0.1-1.8c-0.3-0.1-0.3-0.1-2.4-0.1h-5.9L14.8,48H20.7z"/>
		</g>
		<g class="st2">
			<path class="st0" d="M38.3,40.2l-4.5,11.4h11l-1.6,3.9h-16l6.1-15.3H38.3z"/>
		</g>
		<g class="st2">
			<path class="st0" d="M55.2,40.2l-2.8,7.1c-0.9,2.4-0.9,2.4-1.1,3.1c-0.2,1.2,0.6,1.5,4.6,1.5c3.3,0,4.3-0.1,5-0.7
				c0.5-0.4,0.8-0.8,1.5-2.3c0.2-0.5,0.5-1.3,0.7-1.6l2.8-7.1h4.7l-2.8,7.1c-1.5,3.5-1.6,3.7-2.1,4.8c-1,1.7-2.6,3-4.5,3.3
				c-1.5,0.3-3.1,0.4-6.7,0.4c-5.9,0-7.7-0.3-8.3-1.5c-0.5-0.8-0.3-1.7,0.4-4c0.2-0.5,0.2-0.5,1.1-3l2.8-7.1H55.2z"/>
			<path class="st0" d="M72.7,50.5c-0.4,0.9-0.4,1.2-0.1,1.4c0.3,0.3,0.8,0.3,4.1,0.3c5.1,0,5.1,0,5.6-1.4c0.4-0.9,0.1-1.1-1.4-1.2
				l-3.7-0.1l-2.5-0.1l-1.2,0c-3.8-0.1-4.5-1.1-3.1-4.5c1.2-2.9,2.5-4.2,4.8-4.7c1-0.2,3.2-0.3,6.9-0.3c4.5,0,6.1,0.2,6.9,0.9
				c0.7,0.6,0.7,1.6-0.1,3.4c0,0.1-0.2,0.4-0.3,0.7h-4.6c0.3-0.9,0.3-1.1,0-1.3c-0.3-0.2-0.9-0.3-4.2-0.3c-4,0-4.4,0.1-4.8,1.2
				c-0.2,0.6-0.1,0.9,0.3,1c0.4,0.1,1.6,0.2,4.9,0.3c5,0.2,6,0.3,6.8,0.9c0.8,0.7,0.8,1.7-0.1,3.9c-1.1,2.7-2.2,4-4.1,4.6
				c-1.1,0.3-3.1,0.5-7.7,0.5c-4.8,0-6.6-0.2-7.4-0.9c-0.8-0.7-0.8-1.6,0-3.7l0.3-0.7H72.7z"/>
		</g>
	</g>
</g>
</svg>
