<svg xmlns="http://www.w3.org/2000/svg" viewBox="0 0 104.41 99.39"><defs><style>.cls-1,.cls-3{fill:#ced3dd;}.cls-2{fill:none;stroke:#ced3dd;stroke-miterlimit:10;}.cls-3{font-size:24.73px;font-family:MicrogrammaD-BoldExte, Microgramma D Extended;font-weight:700;}.cls-4{letter-spacing:0.01em;}</style></defs><g id="Layer_2" data-name="Layer 2"><g id="Layer_1-2" data-name="Layer 1"><path class="cls-1" d="M75,13l-4.17,19.7h3.49L78,15.28A10.36,10.36,0,0,0,72.48,3.84,10.35,10.35,0,0,1,75,13Z"/><path class="cls-1" d="M10.87,64.91a10.39,10.39,0,0,1-4.61-1.07,10.32,10.32,0,0,0,7.61,3.34H30.58l.48-2.27Z"/><path class="cls-1" d="M98.64,36.05a10.27,10.27,0,0,1,2.53,9.16L97,64.91H64L57.22,97.12H37A10.22,10.22,0,0,1,32.43,96,10.25,10.25,0,0,0,40,99.39h20.2L67,67.18h33l4.17-19.7A10.36,10.36,0,0,0,98.64,36.05Z"/><path class="cls-2" d="M98.64,36.05A10.24,10.24,0,0,0,91,32.71H70.84L75,13A10.38,10.38,0,0,0,64.87.5H44.68L37.87,32.71h-33L.73,52.4A10.34,10.34,0,0,0,10.87,64.91H31.06l-.48,2.27L26.89,84.61A10.36,10.36,0,0,0,32.43,96,10.22,10.22,0,0,0,37,97.12H57.22L64,64.91H97l4.16-19.7A10.27,10.27,0,0,0,98.64,36.05Z"/><text class="cls-3" transform="matrix(0.94, 0, -0.37, 0.93, 5.96, 55.54)">P<tspan class="cls-4" x="21.44" y="0">L</tspan><tspan x="39.79" y="0">US</tspan></text></g></g></svg>