<svg xmlns="http://www.w3.org/2000/svg" viewBox="0 0 114.87 93.45"><defs><style>.cls-1{fill:#ced3dd;}.cls-2{fill:#050a17;}</style></defs><g id="Layer_2" data-name="Layer 2"><g id="Layer_1-2" data-name="Layer 1"><polygon class="cls-1" points="99.56 84.63 87.91 93.45 24.55 93.45 24.31 59.35 5.85 27.34 9.77 24.9 0 9.02 11.54 0.12 35.13 1.73 99.56 84.63"/><path class="cls-2" d="M57.39,79.51l-1.46-2.4v2.4H36.67V46.75h16l.86-1.4H39L22.85,18.87H29L20.53,5H41.39L54,25.74l3.42-5.62L48.22,5H69.08L84.77,30.77l3.4-5.6L75.9,5H96.76L109,25.17,98.64,42.25,109,59.33,96.76,79.51ZM86.1,62.74l2.07-3.41L86.1,55.91ZM66.93,60.9V57.75l-1,1.58ZM69,39.15l-1.14-1.88-1.15,1.88H69Z"/><path class="cls-1" d="M94,10l9.24,15.2L94,40.36H84.77L94,25.17,84.77,10H94M66.28,10,84.77,40.36H75.58L67.86,27.67,60.14,40.36H51L63.26,20.12,57.09,10h9.19m-27.7,0,10,16.51H42.51L51,40.36H41.76l-10-16.5h6.12L29.39,10h9.19M94,44.13l9.24,15.2L94,74.52H84.77L94,59.33l-9.24-15.2H94m-12.85,0V74.52H71.92V44.13h9.19m-11.73,0-9.24,15.2,9.24,15.19H60.19l-4.67-7.68-4.58,7.52v.16H41.65V51.73h9.29v7.53l9.2-15.13h9.24M99.56,0H11.66L20.1,13.88H14L23.2,29,31.68,43V84.5H99.56l2.92-4.79,9.24-15.2,3.15-5.18-3.15-5.18-7.24-11.9,7.24-11.9,3.15-5.18L111.72,20,102.48,4.79,99.56,0Z"/><path class="cls-2" d="M89.09,79.22a1.51,1.51,0,0,1-.93.36c-.54,0-1-.26-1-.89a1.3,1.3,0,0,1,1.39-1.3,1,1,0,0,1,.76.33l-.49.45a.4.4,0,0,0-.34-.15.53.53,0,0,0-.55.54.36.36,0,0,0,.39.37.63.63,0,0,0,.42-.18Z"/><path class="cls-2" d="M91.73,78.3a1.3,1.3,0,0,1-1.41,1.28.91.91,0,0,1-1-.9,1.3,1.3,0,0,1,1.42-1.29A.91.91,0,0,1,91.73,78.3Zm-.78.12a.35.35,0,0,0-.36-.39.53.53,0,0,0-.52.54.35.35,0,0,0,.36.38A.52.52,0,0,0,91,78.42Z"/><path class="cls-2" d="M91.66,80.87H87.21a2.38,2.38,0,1,1,0-4.76h4.45a2.38,2.38,0,1,1,0,4.76Zm-4.45-4.06a1.68,1.68,0,1,0,0,3.36h4.45a1.68,1.68,0,1,0,0-3.36Z"/></g></g></svg>